<svg width="56" height="26" viewBox="0 0 56 26" fill="none" xmlns="http://www.w3.org/2000/svg">
<path d="M16.8008 1.39844H18.8164C19.6471 1.39844 20.3138 1.66146 20.8164 2.1875C21.3164 2.71354 21.5664 3.38411 21.5664 4.19922C21.5664 5.01693 21.3164 5.6875 20.8164 6.21094C20.3138 6.73698 19.6471 7 18.8164 7H16.8008V1.39844ZM20.4297 5.86328C20.8255 5.42318 21.0234 4.86849 21.0234 4.19922C21.0234 3.52995 20.8255 2.97526 20.4297 2.53516C20.0312 2.09766 19.4935 1.87891 18.8164 1.87891H17.3281V6.51953H18.8164C19.4935 6.51953 20.0312 6.30078 20.4297 5.86328ZM27.5233 7H26.9256L25.4686 4.79297H23.6131V7H23.0858V1.39844H25.3162C25.9204 1.39844 26.3957 1.54948 26.742 1.85156C27.0832 2.15365 27.2537 2.56901 27.2537 3.09766C27.2537 3.33203 27.216 3.54948 27.1405 3.75C27.0676 3.94792 26.9725 4.10547 26.8553 4.22266C26.7485 4.33464 26.6327 4.42839 26.5077 4.50391C26.3019 4.63151 26.1418 4.69531 26.0272 4.69531L27.5233 7ZM23.6131 1.87891V4.3125H25.3162C25.7511 4.3125 26.0923 4.20573 26.3397 3.99219C26.5871 3.77604 26.7108 3.47786 26.7108 3.09766C26.7108 2.72005 26.5871 2.42188 26.3397 2.20312C26.0871 1.98698 25.7459 1.87891 25.3162 1.87891H23.6131ZM30.6208 1.39844H31.3473L33.6442 7H33.0934L32.5387 5.65625H29.4294L28.8747 7H28.3239L30.6208 1.39844ZM29.6286 5.17578H32.3395L30.9958 1.86328H30.9723L29.6286 5.17578ZM39.7144 7H39.2027V5.78516H39.1792C39.161 5.83984 39.1428 5.88542 39.1245 5.92188C39.1037 5.96875 39.0321 6.07161 38.9097 6.23047C38.8003 6.37891 38.6701 6.51172 38.5191 6.62891C38.3654 6.74609 38.1558 6.84896 37.8902 6.9375C37.6219 7.03125 37.3264 7.07812 37.0034 7.07812C36.1883 7.07812 35.5308 6.80859 35.0308 6.26953C34.5308 5.73307 34.2808 5.04297 34.2808 4.19922C34.2808 3.35547 34.5321 2.66536 35.0347 2.12891C35.5347 1.58984 36.204 1.32031 37.0425 1.32031C37.4748 1.32031 37.8628 1.39453 38.2066 1.54297C38.5477 1.69401 38.8107 1.8737 38.9956 2.08203C39.1701 2.28776 39.3172 2.4974 39.437 2.71094C39.5568 2.92188 39.6336 3.10417 39.6675 3.25781L39.7144 3.48047H39.1636L39.1558 3.46484C39.1402 3.39974 39.1154 3.3151 39.0816 3.21094C39.0503 3.1276 38.98 2.99479 38.8706 2.8125C38.7586 2.625 38.6336 2.46615 38.4956 2.33594C38.3498 2.20052 38.1506 2.08073 37.898 1.97656C37.6402 1.86979 37.355 1.81641 37.0425 1.81641C36.3576 1.81641 35.8185 2.04036 35.4253 2.48828C35.0269 2.9388 34.8277 3.50911 34.8277 4.19922C34.8277 4.88672 35.0256 5.45573 35.4214 5.90625C35.8146 6.35938 36.342 6.58594 37.0034 6.58594C37.3316 6.58594 37.6284 6.52474 37.8941 6.40234C38.1623 6.27734 38.368 6.13411 38.5112 5.97266C38.6571 5.80859 38.7782 5.62891 38.8745 5.43359C39.0334 5.11328 39.1128 4.85677 39.1128 4.66406H37.0737V4.18359H39.7144V7ZM48.5148 2H48.4914L46.5969 5.43359H45.9211L44.0266 2H44.0031V7H43.4758V1.39844H44.3L46.2492 4.96094H46.2609H46.2687L48.218 1.39844H49.0422V7H48.5148V2ZM54.8467 7H50.8077V1.39844H54.8467V1.87891H51.335V3.88672H54.3897V4.36719H51.335V6.51953H54.8467V7Z" fill="black"/>
<circle opacity="0.4" cx="8.5" cy="17.5" r="8" stroke="black"/>
</svg>
